<?xml version="1.0" encoding="UTF-8"?>
<svg xmlns="http://www.w3.org/2000/svg" viewBox="0 0 780 270">
  <!-- Logotipo en texto. Heredará el color del trazo (stroke) del componente. -->
  <g id="logotype" fill="currentColor" stroke-miterlimit="10" stroke-width="1.16px">
    <polygon points="327.91 261.13 334.09 261.13 334.09 236.34 364.3 236.34 364.3 231 334.09 231 334.09 208.04 367.98 208.04 367.98 202.7 327.91 202.7 327.91 261.13"/>
    <path d="M413.38,224.4c-3.1-1.71-6.58-2.56-10.43-2.56s-7.35.86-10.49,2.59c-3.13,1.73-5.58,4.09-7.34,7.09-1.76,3-2.64,6.38-2.64,10.13s.88,7.12,2.64,10.13c1.76,3,4.21,5.37,7.34,7.09,3.13,1.73,6.63,2.59,10.49,2.59s7.34-.85,10.43-2.56c3.1-1.71,5.54-4.07,7.32-7.09,1.78-3.02,2.67-6.41,2.67-10.16s-.89-7.13-2.67-10.16c-1.78-3.02-4.22-5.39-7.32-7.09ZM417.14,249.91c-1.41,2.47-3.36,4.4-5.84,5.79-2.49,1.39-5.27,2.09-8.35,2.09s-5.87-.7-8.38-2.09c-2.5-1.39-4.47-3.32-5.9-5.79-1.43-2.47-2.14-5.22-2.14-8.26s.71-5.8,2.14-8.26c1.43-2.47,3.39-4.4,5.9-5.79,2.5-1.39,5.29-2.09,8.38-2.09s5.86.7,8.35,2.09c2.49,1.39,4.43,3.32,5.84,5.79,1.41,2.47,2.11,5.22,2.11,8.26s-.71,5.8-2.11,8.26Z"/>
    <polygon points="431.5 225.74 445.18 225.74 445.18 261.13 449.3 261.13 449.3 225.74 462.99 225.74 462.99 222.18 431.5 222.18 431.5 225.74"/>
    <path d="M502.03,224.4c-3.1-1.71-6.58-2.56-10.43-2.56s-7.35.86-10.49,2.59c-3.13,1.73-5.58,4.09-7.34,7.09-1.76,3-2.64,6.38-2.64,10.13s.88,7.12,2.64,10.13c1.76,3,4.21,5.37,7.34,7.09,3.13,1.73,6.63,2.59,10.49,2.59s7.34-.85,10.43-2.56c3.1-1.71,5.54-4.07,7.32-7.09,1.78-3.02,2.67-6.41,2.67-10.16s-.89-7.13-2.67-10.16c-1.78-3.02-4.22-5.39-7.32-7.09ZM505.78,249.91c-1.41,2.47-3.36,4.4-5.84,5.79-2.49,1.39-5.27,2.09-8.35,2.09s-5.87-.7-8.38-2.09c-2.5-1.39-4.47-3.32-5.9-5.79-1.43-2.47-2.14-5.22-2.14-8.26s.71-5.8,2.14-8.26c1.43-2.47,3.39-4.4,5.9-5.79,2.5-1.39,5.29-2.09,8.38-2.09s5.86.7,8.35,2.09c2.49,1.39,4.43,3.32,5.84,5.79,1.41,2.47,2.11,5.22,2.11,8.26s-.71,5.8-2.11,8.26Z"/>
    <path d="M535.58,227.6c2.54-1.39,5.39-2.09,8.54-2.09,4.75,0,8.66,1.52,11.74,4.56l2.56-2.62c-1.71-1.85-3.8-3.26-6.29-4.2-2.49-.95-5.21-1.42-8.18-1.42-3.93,0-7.46.85-10.57,2.56-3.12,1.71-5.57,4.07-7.35,7.09s-2.67,6.41-2.67,10.16.89,7.13,2.67,10.16,4.23,5.39,7.35,7.09c3.12,1.71,6.62,2.56,10.52,2.56,2.75,0,5.36-.43,7.85-1.28,2.49-.85,4.64-2.08,6.46-3.67v-14.86h-3.95v13.13c-2.78,2-6.18,3-10.18,3-3.15,0-5.99-.7-8.51-2.11-2.52-1.41-4.51-3.34-5.95-5.79-1.45-2.45-2.17-5.19-2.17-8.24s.72-5.8,2.17-8.26c1.45-2.47,3.44-4.4,5.98-5.79Z"/>
    <path d="M603.58,243.24c1.54-2.1,2.31-4.67,2.31-7.71,0-4.15-1.41-7.42-4.23-9.79-2.82-2.37-6.71-3.56-11.69-3.56h-14.58v38.95h4.12v-12.35h10.46c1.08,0,2.11-.06,3.12-.17l8.9,12.52h4.51l-9.52-13.35c2.86-.93,5.05-2.44,6.59-4.54ZM589.86,245.27h-10.35v-19.53h10.35c3.86,0,6.81.84,8.85,2.53,2.04,1.69,3.06,4.11,3.06,7.26s-1.02,5.47-3.06,7.18c-2.04,1.71-4.99,2.56-8.85,2.56Z"/>
    <path d="M632.76,222.18l-17.81,38.95h4.28l4.67-10.41h21.7l4.67,10.41h4.34l-17.81-38.95h-4.06ZM625.42,247.38l9.35-20.92,9.35,20.92h-18.7Z"/>
    <polygon points="666.65 261.13 670.77 261.13 670.77 244.6 690.91 244.6 690.91 241.04 670.77 241.04 670.77 225.74 693.36 225.74 693.36 222.18 666.65 222.18 666.65 261.13"/>
    <polygon points="705.88 219 709.78 219 718.79 212.1 713.5 212.1 705.88 219"/>
    <rect x="707.44" y="222.18" width="4.12" height="38.95"/>
    <path d="M745.44,222.18h-4.06l-17.81,38.95h4.28l4.67-10.41h21.7l4.67,10.41h4.34l-17.81-38.95ZM734.04,247.38l9.35-20.92,9.35,20.92h-18.7Z"/>
  </g>
  <!-- Monograma "OD". Heredará el color de relleno (fill) del componente. -->
  <g id="monogram" fill="currentColor" stroke-miterlimit="10" stroke-width="1.16px">
    <path d="M24.65,60.02c23.21-18.06,51.26-30.6,80.89-32.38,20.01-1.5,43.35,1.9,56.22,19.07,10.77,14.22,11.51,33.45,8.09,50.27-5.82,26.57-25.28,48.59-47.55,63.14-16.82,10.71-36.4,17.36-56.42,17.72-13.46.4-28.39-2.08-38.88-11.43-21.1-19.18-17.71-53.73-8.91-78.16,2.47-6.34,5.6-12.28,9.01-18.14,17.2-28.63,44.95-51.24,76.83-61.38,6.43-1.65,22.81-6.32,25.58,2.49,2.22,9.96-15.83,25.69-22.94,31.61-1.57,1.24-3.61-.82-2.41-2.37.75-.98,2.23-2.88,3-3.84,2.88-3.75,5.8-7.5,8.52-11.36,1.78-2.53,3.49-5.11,4.76-7.65.74-1.53,1.5-3.08,1.4-4.39,0-.05,0,.07.04.16.02.1.07.2.11.3.09.2.22.38.33.5.23.25.37.29.34.28-2.18-.49-4.85-.08-7.21.27-9.11,1.51-17.88,4.77-26.28,8.86-28.06,14.12-47.48,40.89-59.6,69.22-7.42,19.62-12.87,50.74,3.41,67.09,12.82,12.53,34.6,12.38,51.22,8.89,30.26-6.8,55.27-30,68.72-57.35,6.58-13.45,9.22-28.66,7.09-43.35-3.53-23.33-22.86-32.85-44.77-33.8-29.99-1.16-63.06,12.74-88.57,28.41-1.74,1.21-3.74-1.31-2.03-2.71h0Z"/>
    <path d="M165.22,158.28c8.79,5.7,22.18-2.04,26.05-10.58.27-.71.44-1.36.46-2.07-.16-1.3-1.67-2.35-2.92-3.33-6.64-5-19.07-9.57-17.51-20.24,1.75-9.07,10.68-15.83,18-20.13,5.88-3.5,19.1-8.23,20.73,2.19.46,5.44-2.11,10.39-4.75,14.85-.84,1.38-3.01.54-2.76-1.01.52-3.81,1.42-7.62,1.27-11.29-.06-.65-.16-1.49-.46-1.81-.06.05.18.17.13.13-.06-.01-.37-.12-.79-.16-3.39-.29-7.32.7-10.4,2.37-6.09,2.99-13.88,8.78-13.2,16.03.06,1.72.68,2.33,1.98,3.59,1.52,1.31,3.59,2.71,5.83,4.03,4.32,2.76,9.97,5.68,12.19,11.01,2.82,7.82-4.33,15.33-10.45,19.04-7.44,4.55-18.65,6.54-25.34-.33-1.22-1.3.49-3.27,1.94-2.28h0Z"/>
    <path d="M244.99,142.6c-3.16,12.47-14.15,23.76-27.56,23.98-15.11-.42-12.61-20.31-9.71-29.97,2.24-8.26,6.11-16.06,11.23-22.92,5.57-7.26,12.93-15.66,22.97-16.09,7.2-.03,9.74,6.69,8.32,12.76-.34,1.61-.72,2.93-1.36,4.5-.72,1.75-2.73,2.58-4.48,1.86-1.65-.67-2.46-2.48-1.99-4.13.47-2.37.98-5.44.14-6.94-6.53-.14-13.03,7.92-16.74,13.01-5.85,8.14-9.65,17.77-11.27,27.64-.38,2.41-.59,4.84-.42,7,.14,1.64.46,3.57,1.45,4.58.97,1.03,3.1.66,4.44.67,6.5-.66,12.31-4.62,16.8-9.23,2.17-2.26,4.34-4.83,5.92-7.47.63-1.27,2.56-.6,2.27.77h0Z"/>
    <path d="M299.46,151.18c-2.44,3.73-5.2,7.14-8.61,10.2-2.02,1.66-3.69,3.14-6.44,4.02-2.1.77-5.24.06-6.41-2.25-1.89-3.78-.75-8.06-.16-11.75,2.22-10.73,6.27-20.89,9.94-31.13,1.67-4.94,3.8-9.96,4.75-14.93,0,0-.03.03.08.36.14.34.15.27.12.26-.08-.08-.37-.28-.69-.44-5.19-2.05-11.07.17-15.46,3.38-6.33,4.79-10.57,12-13.81,19.25-3.2,7.27-5.69,15.15-5.9,23.06-.05,15.62,15.54-2.82,19.2-7.46,2.65-3.32,5.24-6.76,7.69-10.24.8-1.15,2.63-.14,2.09,1.14-1.69,4.08-3.63,7.98-5.85,11.79-4.28,6.91-8.81,14.42-16.69,17.8-4.66,1.96-10.85-.18-13.02-4.85-4.89-10.07.96-25.25,5.27-34.61,6.18-13.56,18.4-28.81,35.21-26.39,2.98.58,6.61,1.83,7.92,5.14.72,2.42-.07,4.19-.55,6.33-3.76,12.52-8.57,24.35-12.13,36.83-1.16,4.27-2.82,9.09-2.47,13.32-.09-.18-.65-.53-.85-.52-.26-.02-.12.06.14,0,4.47-1.47,8.51-5.18,12.35-7.97.84-.66,1.7-1.34,2.55-1.98,1.05-.83,2.49.53,1.74,1.62h0Z"/>
    <path d="M326.27,103.93c-2.38,3.92-4.4,8.8-6.21,13.18-1.99,4.76-3.88,9.72-5.29,14.83-2.09,7.68-3.84,15.52-5.33,23.36-.46,2.62-.91,5.28-1.29,7.86,0,0-7.22-1.73-7.22-1.73,2.58-7.55,5.47-14.78,8.71-21.99,6.48-13.74,14.79-31.06,28.37-39.2,4.52-2.58,14.38-3.81,13.89,4-.35,3.1-2.21,5.68-3.8,7.82-1.4,1.74-2.9,3.34-4.65,4.75-2.01,1.64-4.81-.73-3.61-2.97,0,0,2.54-4.8,2.54-4.8.81-1.6,1.72-3.45,2.17-5.06.06-.09-.06.17.46.94.3.46,1.19.97,1.56.86-.33-.04-.66-.11-1.01-.12-9.36-.68-15.9,8.45-20.36,15.59-8.38,13.27-11.42,29.11-17.57,43.3-1.96,3.93-7.91,1.74-6.84-2.52,2.04-7.69,4.18-16.1,6.19-23.74.7-2.63,1.43-5.24,2.21-7.85,2.45-7.81,3.27-16.37,7.63-23.6,1.41-2.32,6.44-9.88,9.5-5.91.64.94.57,2.12-.04,3h0Z"/>
    <path d="M643.45,103.93c-2.38,3.92-4.4,8.8-6.21,13.18-1.99,4.76-3.88,9.72-5.29,14.83-2.09,7.68-3.84,15.52-5.33,23.36-.46,2.62-.91,5.28-1.29,7.86,0,0-7.22-1.73-7.22-1.73,2.58-7.55,5.47-14.78,8.71-21.99,6.48-13.74,14.79-31.06,28.37-39.2,4.52-2.58,14.38-3.81,13.89,4-.35,3.1-2.21,5.68-3.8,7.82-1.4,1.74-2.9,3.34-4.65,4.75-2.01,1.64-4.81-.73-3.61-2.97,0,0,2.54-4.8,2.54-4.8.81-1.6,1.72-3.45,2.17-5.06.06-.09-.06.17.46.94.3.46,1.19.97,1.56.86-.33-.04-.66-.11-1.01-.12-9.36-.68-15.9,8.45-20.36,15.59-8.38,13.27-11.42,29.11-17.57,43.3-1.96,3.93-7.91,1.74-6.84-2.52,2.04-7.69,4.18-16.1,6.19-23.74.7-2.63,1.43-5.24,2.21-7.85,2.45-7.81,3.27-16.37,7.63-23.6,1.41-2.32,6.44-9.88,9.5-5.91.64.94.57,2.12-.04,3h0Z"/>
    <path d="M736.36,102.05c-4.07,6.2-6.33,13.53-8.8,20.55-4.35,12.51-7.35,25.6-9.33,38.68,0,0-7.17-1.88-7.17-1.88,4.87-12.55,10.29-24.65,16.83-36.43,5.27-8.9,10.53-18.38,19.63-24.4,2.79-1.8,7.03-2.97,10.51-1.88,6.31,2.3,2.69,11.43,1.59,15.93-2.9,9.57-6.52,18.89-9.94,28.2-1.81,5.18-4.92,12.91-5.94,18.2-.12.65-.16,1.39-.15,1.5.03.08-.17-.5-.52-.72-.33-.24-.47-.19-.38-.18.84.1,2.52-.2,3.55-.51,2.93-.76,6.01-1.93,9.13-2.9.75-.23,1.55.19,1.78.94.17.54,0,1.09-.38,1.46-1.25,1.26-2.6,2.3-4.02,3.29-3.34,2.11-6.57,4.2-10.87,3.99-6.73-.85-4.75-8.62-3.64-13.11,1.88-7.62,5.09-16.37,7.67-23.83,2.23-6.11,4.46-12.31,6.42-18.46.77-2.64,1.75-5.58,1.82-8.22.02-.11-.08-.12.24.44.16.34,1.03,1.04,1.53,1.09,0,0-.04-.01-.04-.01,0,0-.15-.05-.15-.05-13.11-4.31-25.6,30.81-30.08,40.28,0,0-7.63,17.98-7.63,17.98,0,0-.73,1.16-.73,1.16-2.27,3.53-7.72.95-6.44-3.04,1.76-5.3,3.2-10.5,4.52-15.77,2.9-10.54,4.03-21.46,7.97-31.77,2.18-5.28,4.67-10.57,9.4-14.25,2.44-1.81,5.45,1.34,3.6,3.7h0Z"/>
    <path d="M424.72,71.31c-9.36-3.66-12.12-15.14-6.55-23.28,10.49-15.25,40.76-20.63,58.17-21.8,8.95-.64,17.97-.01,26.86,1.19,17.77,2.55,36.25,7.15,50,19.52,20.04,18.11,18.17,47.39,5.43,69.14-21.14,35.97-60.01,64.11-102.81,64.28-10.19.04-20.36-1.57-30.1-4.52-7.6-2.88-6.59-13.84-6.56-20.11.44-9,1.66-17.89,3.38-26.66,3.29-17.39,9.21-34.36,16.59-50.38,5.99-13.36,12.78-26.36,20.65-38.73,7.81-11.23,18.14-28.18,32.36-31.1,1.61-.29,2.51,1.84,1.12,2.75-4.57,2.96-8.41,7.16-11.91,11.55-3.5,4.42-6.63,9.16-9.57,14.01-8.79,14.53-15.86,30.34-22.54,45.96-6.75,15.65-12.36,31.62-16.8,48.06-2.09,8.22-3.98,16.56-4.67,25.01-.26,3.82-.58,8.25.69,11.69.08.16.17.27.14.23-.03-.03-.09-.06-.19-.1-.05-.01.03.01.06.02,3.49.99,7.08,1.91,10.65,2.51,27.77,5.33,56.44-4.87,77.96-22.41,22.56-18.25,51.08-51.88,39.7-82.72-10.39-25.73-46.33-31.63-71.2-31.52-16.7.46-33.89,4.25-48.36,12.63-3.88,2.44-8.18,4.98-10.16,8.99-1.48,3.68.37,7.5,1.61,10.98,0,0,.12,2.06.12,2.06.18,2.1-2.18,3.66-4.04,2.72h0Z"/>
    <path d="M585.81,102.03c-4.19,11.57-19.77,44.48-17.25,54.36,10.2,1.9,19.38-11.03,24.53-18.8,7.17-11.14,12.29-23.47,17.35-35.71.32-.67.62-1.4,1.15-2.03.77-1.02,2.7-1.34,3.74-.3,1.38,1.28.83,2.88.44,4.35-3,9.24-6.51,18.59-9.45,27.81-2.6,8.48-6.99,20.17-8.64,28.72-.02.2-.04.38-.04.47-.02.06.06.14-.12-.44-.02-.06-.06-.15-.11-.27-.26-.55-.83-1.21-1.53-1.54-.03-.02-.14-.04-.13-.02,1.77-.05,3.85-1.48,5.5-2.51,3.73-2.46,7.44-5.6,11.34-8.5.68-.51,1.64-.37,2.15.32.36.48.39,1.1.15,1.6-1.14,2.32-2.52,4.4-4.04,6.44-3.83,4.77-9.11,10.88-15.97,10.55-1.83-.14-3.97-1.17-4.68-2.89-.98-2.33-.48-4.11-.14-6.24,1.11-5.11,2.77-9.63,4.53-14.41,4.93-13.3,12.21-27.76,16.57-41.24,0,0,.05-.25.05-.25,0-.01,0-.01,0,.07,0,0,0,.11,0,.11l.02.2c.26,1.93,2.84,2.74,4.14,1.28,0,0,.09-.11.09-.11.02-.03.01-.02.01-.02-.01.01-.06.11-.11.2-5.33,12.59-9.98,25.71-16.85,37.62-5.2,8.85-11.44,18.4-21.52,22.42-7.32,2.66-15.86,1.75-16.84-7.41-1.07-13.05,7.99-31.81,13.84-43.39,2.29-4.36,4.7-8.62,7.4-12.78.76-1.16,2.31-1.49,3.47-.74,1.03.67,1.41,1.97.95,3.06h0Z"/>
    <g>
      <path d="M709.4,151.18c-2.44,3.73-5.2,7.14-8.61,10.2-2.02,1.66-3.69,3.14-6.44,4.02-2.1.77-5.24.06-6.41-2.25-1.89-3.78-.75-8.06-.16-11.75,2.22-10.73,6.27-20.89,9.94-31.13,1.67-4.94,3.8-9.96,4.75-14.93,0,0-.03.03.08.36.14.34.15.27.12.26-.08-.08-.37-.28-.69-.44-5.19-2.05-11.07.17-15.46,3.38-6.33,4.79-10.57,12-13.81,19.25-3.2,7.27-5.69,15.15-5.9,23.06-.05,15.62,15.54-2.82,19.2-7.46,2.65-3.32,5.24-6.76,7.69-10.24.8-1.15,2.63-.14,2.09,1.14-1.69,4.08-3.63,7.98-5.85,11.79-4.28,6.91-8.81,14.42-16.69,17.8-4.66,1.96-10.85-.18-13.02-4.85-4.89-10.07.96-25.25,5.27-34.61,6.18-13.56,18.4-28.81,35.21-26.39,2.98.58,6.61,1.83,7.92,5.14.72,2.42-.07,4.19-.55,6.33-3.76,12.52-8.57,24.35-12.13,36.83-1.16,4.27-2.82,9.09-2.47,13.32-.09-.18-.65-.53-.85-.52-.26-.02-.12.06.14,0,4.47-1.47,8.51-5.18,12.35-7.97.84-.66,1.7-1.34,2.55-1.98,1.05-.83,2.49.53,1.74,1.62h0Z"/>
      <path d="M692.76,87.66c3.13-4.41,7.04-8.28,10.99-11.92,4.12-3.65,8.16-7.16,13.69-8.68,1.29-.49,2.78.15,3.13,1.53.17.66.04,1.33-.31,1.86-3.1,4.56-7.27,7.92-11.49,11.32-4.12,3.23-8.68,6.61-13.19,9.28-2.17,1.28-4.44-1.49-2.82-3.38h0Z"/>
    </g>
  </g>
</svg>